<?xml version="1.0" encoding="UTF-8"?>
<svg id="Layer_1" data-name="Layer 1" xmlns="http://www.w3.org/2000/svg" viewBox="0 0 183.61 52.82">
  <defs>
    <style>
      .cls-1 {
        stroke: #231f20;
        stroke-miterlimit: 10;
        stroke-width: .3px;
      }

      .cls-1, .cls-2 {
        fill: #231f20;
      }

      .cls-2 {
        stroke-width: 0px;
      }
    </style>
  </defs>
  <path class="cls-2" d="M0,50.52h2.67c8.92,0,11.32-4.03,11.32-10.02V2.88H5.92v36.71c0,2.6-1.11,3.91-4.23,3.91H0v7.03Z"/>
  <path class="cls-2" d="M19.2,38.48c0,6.64,3.91,12.04,12.37,12.04s12.37-5.4,12.37-12.04V14.27c0-6.64-3.91-12.04-12.37-12.04s-12.37,5.4-12.37,12.04v24.21ZM27.27,14.47c0-3.51,1.04-5.21,4.3-5.21s4.3,1.69,4.3,5.21v23.82c0,3.51-1.04,5.21-4.3,5.21s-4.3-1.69-4.3-5.21V14.47Z"/>
  <polygon class="cls-2" points="56.43 49.87 56.43 20.52 56.56 20.52 66.85 49.87 73.88 49.87 73.88 2.88 66.59 2.88 66.59 29.76 66.46 29.76 56.63 2.88 49.14 2.88 49.14 49.87 56.43 49.87"/>
  <polygon class="cls-2" points="101.9 49.87 101.9 42.84 87.46 42.84 87.46 29.05 97.87 29.05 97.87 22.02 87.46 22.02 87.46 9.91 100.99 9.91 100.99 2.88 79.38 2.88 79.38 49.87 101.9 49.87"/>
  <path class="cls-2" d="M128.12,13.62c-.72-6.64-4.62-11.39-11.2-11.39-7.94,0-12.5,4.23-12.5,11.72,0,13.47,16.4,15.95,16.4,25.26,0,2.8-1.89,4.3-4.69,4.3-2.6,0-4.49-2.34-4.82-7.1l-7.68,1.11c.33,7.03,4.62,13.02,12.11,13.02s12.76-4.3,12.76-12.04c0-12.76-16.4-16.6-16.4-24.6,0-2.93,1.43-4.62,4.04-4.62,1.82,0,3.97,1.17,4.29,5.21l7.68-.85Z"/>
  <path class="cls-2" d="M181.65,5.22c-.04.37-.33.58-.74.58-.52,0-.87-.48-.87-1.07s.3-1.04.85-1.04c.38,0,.68.19.75.56h.57c-.11-.74-.66-1.13-1.33-1.13-.96,0-1.55.69-1.55,1.63s.62,1.63,1.56,1.63c.65,0,1.21-.43,1.33-1.16h-.6ZM182.89,4.76c0,1.26-.93,2.16-2.08,2.16s-2.08-.9-2.08-2.16.91-2.16,2.08-2.16,2.08.9,2.08,2.16M180.81,7.5c1.48,0,2.8-1.07,2.8-2.73s-1.32-2.73-2.8-2.73-2.8,1.08-2.8,2.73,1.32,2.73,2.8,2.73"/>
  <path class="cls-1" d="M156.42.15c-15.33,0-26.89,11.29-26.89,26.26s11.56,26.26,26.89,26.26,26.89-11.29,26.89-26.26S171.75.15,156.42.15ZM175.95,26.41c0,11.58-8.4,20.3-19.53,20.3s-19.53-8.73-19.53-20.3,8.4-20.3,19.53-20.3,19.53,8.73,19.53,20.3Z"/>
  <path class="cls-1" d="M162.98,30.18c-.33,2.79-2.46,4.45-5.7,4.45-3.95,0-6.81-3.57-6.81-8.49s2.56-8.24,6.69-8.24c3.11,0,5.29,1.61,5.83,4.31l.08.41h5.86l-.09-.59c-.92-6.17-5.39-10-11.69-10-8.11,0-13.56,5.72-13.56,14.24s5.75,14.24,13.68,14.24c5.98,0,10.7-4.09,11.75-10.18l.1-.6h-6.1l-.05.45Z"/>
</svg>