<?xml version="1.0" encoding="UTF-8"?>
<svg id="Layer_2" data-name="Layer 2" xmlns="http://www.w3.org/2000/svg" viewBox="0 0 1360.85 627.79">
  <defs>
    <style>
      .cls-1 {
        fill: #fff;
      }

      .cls-2 {
        fill: #e85a24;
      }
    </style>
  </defs>
  <g id="Layer_1-2" data-name="Layer 1">
    <g>
      <path class="cls-1" d="M498.48,627.71l-238.86.08-107.05-175.14-32.8,37.14-.05,138-119.72-.09V149.42s119.71-.09,119.71-.09l.06,181.24,131.38-181.21,247.32.02v478.33ZM378.66,598.81l.02-438.85-150.06,203.79,150.04,235.06Z"/>
      <polygon class="cls-1" points="867.84 149.34 867.82 512.71 1064.25 512.74 1064.28 627.76 529.39 627.65 529.31 149.39 649.06 149.35 649.04 512.73 748.11 512.72 748.1 149.41 867.84 149.34"/>
      <polygon class="cls-1" points="1360.85 149.47 1211.34 469.23 1211.29 627.75 1092.31 627.75 1092.42 468.89 944.93 149.41 1074.39 149.34 1151.7 355.38 1230.77 149.33 1360.85 149.47"/>
    </g>
    <circle class="cls-2" cx="438.58" cy="59.9" r="59.9"/>
  </g>
</svg>